PathFileType	4	(X/Y/Z)	/Users/itak/Documents/Research/Walk-IL/dataset/trc/00314_00010.trc
DataRate	CameraRate	NumFrames	NumMarkers	Units	OrigDataRate	OrigDataStartFrame	OrigNumFrames
100.000000	100.000000	4	55	mm	100.000000	475	543
Frame#	Time	RPSI			LPSI			L3			STRN			T10			C7			CLAV			RBAK			LBAK			LSHO			LUPA			LAEL			LAOL			LWTS			LWPS			LFRA			LIFD			LHPS			LHTS			RSHO			RUPA			RAEL			RAOL			RWTS			RWPS			RFRA			RIFD			RHPS			RBHD			LFHD			RFHD			LBHD			LHIP			RHIP			RASI			LASI			LKNE			LTHI			LANK			LTIP			LTOE			LMT1			LMT5			LHEE			RKNE			RTHI			RANK			RTIP			RTOE			RMT1			RMT5			RHEE			RHTS			*53			*54			
		X1	Y1	Z1	X2	Y2	Z2	X3	Y3	Z3	X4	Y4	Z4	X5	Y5	Z5	X6	Y6	Z6	X7	Y7	Z7	X8	Y8	Z8	X9	Y9	Z9	X10	Y10	Z10	X11	Y11	Z11	X12	Y12	Z12	X13	Y13	Z13	X14	Y14	Z14	X15	Y15	Z15	X16	Y16	Z16	X17	Y17	Z17	X18	Y18	Z18	X19	Y19	Z19	X20	Y20	Z20	X21	Y21	Z21	X22	Y22	Z22	X23	Y23	Z23	X24	Y24	Z24	X25	Y25	Z25	X26	Y26	Z26	X27	Y27	Z27	X28	Y28	Z28	X29	Y29	Z29	X30	Y30	Z30	X31	Y31	Z31	X32	Y32	Z32	X33	Y33	Z33	X34	Y34	Z34	X35	Y35	Z35	X36	Y36	Z36	X37	Y37	Z37	X38	Y38	Z38	X39	Y39	Z39	X40	Y40	Z40	X41	Y41	Z41	X42	Y42	Z42	X43	Y43	Z43	X44	Y44	Z44	X45	Y45	Z45	X46	Y46	Z46	X47	Y47	Z47	X48	Y48	Z48	X49	Y49	Z49	X50	Y50	Z50	X51	Y51	Z51	X52	Y52	Z52	X53	Y53	Z53	X54	Y54	Z54	X55	Y55	Z55	

476	4.75	235.3845062255859	1008.885620117188	769.633056640625	409.8802795410156	995.2538452148438	782.4248657226562	330.22802734375	1070.933227539062	792.3309936523438	320.7362365722656	1249.352905273438	1043.237670898438	336.9959716796875	1188.022094726562	775.9420166015625	352.1426391601562	1433.370849609375	825.7940063476562	330.8212280273438	1348.665649414062	980.5377197265625	279.7096252441406	1296.758544921875	764.4749755859375	457.1859436035156	1393.604125976562	821.897216796875	501.1588745117188	1397.564819335938	916.4066162109375	572.9556274414062	1277.766845703125	894.4537353515625	577.3751831054688	1072.823608398438	892.77001953125	511.6811218261719	1062.515991210938	837.4415893554688	534.6734619140625	845.59814453125	970.9895629882812	586.65087890625	832.3462524414062	923.407470703125	585.4716796875	967.0482177734375	901.755859375	510.6805419921875	663.3612670898438	939.4223022460938	573.0798950195312	745.468017578125	914.3281860351562	542.5650634765625	740.7987060546875	972.5098876953125	187.0699615478516	1409.827758789062	873.5018920898438	121.1528015136719	1351.610717773438	859.9151000976562	59.77386474609375	1088.734741210938	852.3016357421875	148.9459075927734	1075.807006835938	822.604736328125	106.9839782714844	864.2779541015625	955.013916015625	27.8088321685791	865.40234375	922.416015625	44.15085601806641	1022.923645019531	879.8175048828125	93.69029998779297	678.7153930664062	962.1939697265625	25.29676055908203	754.1353149414062	948.9496459960938	279.3016052246094	1591.41748046875	841.9118041992188	368.9170837402344	1631.767456054688	1031.899658203125	276.9365844726562	1626.419677734375	1014.311096191406	423.62744140625	1588.834594726562	869.8021850585938	507.9955139160156	947.6807861328125	863.91845703125	125.1718826293945	961.480712890625	863.6725463867188	190.2097930908203	963.4451293945312	986.8655395507812	441.8884887695312	954.4668579101562	991.9171142578125	449.2493591308594	482.7450256347656	930.1627807617188	474.1254272460938	623.591552734375	922.1708984375	431.2073669433594	47.94032287597656	817.20703125	447.6278381347656	256.2074584960938	873.2929077148438	335.421142578125	36.23286437988281	1011.564025878906	310.4930419921875	29.4409065246582	932.78125	421.0963439941406	40.16588973999023	938.7709350585938	380.3604125976562	45.97687149047852	762.0974731445312	151.7934722900391	485.5361022949219	904.087890625	123.5214614868164	749.847900390625	927.8419189453125	170.7743835449219	44.15048599243164	851.1714477539062	162.3927612304688	364.2477111816406	912.1088256835938	216.2916107177734	43.40692520141602	1047.1142578125	257.3056945800781	37.89509582519531	990.0933227539062	145.5688018798828	36.0602912902832	954.7410278320312	220.1613159179688	37.91141891479492	800.3712158203125	84.575927734375	749.8202514648438	988.3296508789062	nan	nan	nan	nan	nan	nan	
477	4.76	235.0753173828125	1008.9921875	770.3418579101562	409.607421875	995.2448120117188	783.2378540039062	329.830322265625	1070.967529296875	793.0878295898438	320.5457763671875	1249.228271484375	1044.167724609375	336.1658935546875	1188.016357421875	776.6104125976562	351.2298889160156	1433.330688476562	826.6775512695312	330.4983215332031	1348.48779296875	981.2396240234375	278.6251831054688	1296.766845703125	765.4869995117188	456.2233581542969	1393.671142578125	822.3700561523438	500.6102905273438	1397.624633789062	916.7427368164062	572.7316284179688	1278.235473632812	893.79736328125	577.863525390625	1073.306274414062	890.3496704101562	511.8833923339844	1063.364624023438	835.2271728515625	536.2244873046875	845.1778564453125	966.3428344726562	588.133056640625	832.6972045898438	918.4351196289062	586.2813110351562	967.5484619140625	898.2200927734375	513.8224487304688	663.0406494140625	933.8346557617188	575.2794189453125	745.8373413085938	908.8904418945312	545.2008666992188	740.569580078125	967.215576171875	186.3627624511719	1409.643188476562	874.9727172851562	120.395881652832	1351.430908203125	861.7649536132812	58.14305877685547	1088.655395507812	855.9603271484375	147.0045928955078	1075.314453125	825.5875854492188	105.8375015258789	865.043701171875	960.3627319335938	26.50702667236328	865.7529907226562	927.8872680664062	42.61737442016602	1022.955627441406	884.010498046875	91.76304626464844	679.4292602539062	969.1776123046875	23.8752613067627	754.9259643554688	955.4300537109375	278.4695434570312	1591.011840820312	842.6618041992188	368.1841735839844	1632.036499023438	1032.454467773438	276.2467956542969	1626.559814453125	1015.005737304688	422.7800903320312	1588.691284179688	870.43603515625	507.3350830078125	947.9154663085938	864.8814697265625	124.6913909912109	961.53125	864.2747192382812	189.5339508056641	963.2428588867188	987.4073486328125	441.6217956542969	954.7513427734375	993.156494140625	448.9957885742188	482.6170654296875	931.3063354492188	473.8343505859375	623.4773559570312	923.1911010742188	431.1903686523438	47.98184204101562	817.2098388671875	447.5394287109375	256.1344909667969	873.9483032226562	335.4281921386719	36.23715209960938	1011.563720703125	310.4932250976562	29.44084358215332	932.786376953125	421.0958557128906	40.15885543823242	938.7679443359375	380.3072204589844	46.02251434326172	762.1078491210938	151.6410217285156	485.4980163574219	903.4300537109375	122.6423950195312	749.7628173828125	927.2994384765625	170.7605590820312	44.14344024658203	851.178955078125	162.2637481689453	364.36376953125	911.4378051757812	216.2875366210938	43.42597198486328	1047.137573242188	257.2736511230469	37.94051361083984	990.1165161132812	145.5403442382812	36.04531097412109	954.7273559570312	220.1514892578125	37.90685653686523	800.375244140625	83.18183135986328	750.8906860351562	994.945556640625	nan	nan	nan	nan	nan	nan	
478	4.77	234.7640533447266	1009.10302734375	771.0157470703125	409.3407287597656	995.2514038085938	784.0325317382812	329.4397888183594	1071.012084960938	793.826171875	320.3185424804688	1249.11572265625	1044.994995117188	335.3164367675781	1187.982299804688	777.2445068359375	350.3473510742188	1433.279052734375	827.4912109375	330.20849609375	1348.376953125	981.9120483398438	277.5206604003906	1296.743408203125	766.4600219726562	455.2597351074219	1393.723388671875	822.750244140625	500.0554504394531	1397.721923828125	916.970703125	572.5330810546875	1278.761474609375	893.1088256835938	578.4392700195312	1073.854125976562	888.0321044921875	512.24853515625	1064.247192382812	833.0084228515625	537.6558837890625	844.9953002929688	962.0430908203125	589.6056518554688	833.2051391601562	913.9345092773438	587.129150390625	968.1323852539062	894.926025390625	517.166259765625	662.8790893554688	929.0938720703125	577.560791015625	746.3460083007812	904.1371459960938	547.8434448242188	740.6253662109375	962.5703735351562	185.6702423095703	1409.465209960938	876.3858032226562	119.6560668945312	1351.246948242188	863.57763671875	56.6502571105957	1088.545043945312	859.4780883789062	145.298583984375	1074.8330078125	828.6773681640625	104.3406372070312	865.8703002929688	965.8854370117188	25.20759582519531	865.9710083007812	932.9156494140625	41.15508651733398	1022.946533203125	887.985107421875	90.09423828125	680.2974243164062	976.5529174804688	22.57776260375977	755.5753173828125	961.4906005859375	277.6767578125	1590.661376953125	843.381591796875	367.5193176269531	1632.266235351562	1032.99609375	275.6001586914062	1626.671752929688	1015.674987792969	421.9714050292969	1588.578735351562	871.0299682617188	506.6390380859375	948.072509765625	865.7250366210938	124.1971282958984	961.5860595703125	864.8555908203125	188.8651123046875	963.0620727539062	987.9227905273438	441.3192749023438	954.9595336914062	994.2783813476562	448.6980285644531	482.4989929199219	932.3733520507812	473.5216369628906	623.3655395507812	924.1663818359375	431.1786193847656	48.01583099365234	817.2113037109375	447.4455261230469	256.0632934570312	874.5885009765625	335.4356079101562	36.24306869506836	1011.562255859375	310.4940795898438	29.4394416809082	932.7909545898438	421.0967407226562	40.15313720703125	938.7650146484375	380.2640075683594	46.05933380126953	762.11328125	151.4361419677734	485.4500732421875	902.779296875	121.8523406982422	749.6951904296875	926.9111328125	170.7352600097656	44.13117599487305	851.19091796875	162.1353912353516	364.4810180664062	910.8082885742188	216.2802734375	43.44513702392578	1047.15673828125	257.2459716796875	37.99477386474609	990.1405639648438	145.5043792724609	36.02979278564453	954.71435546875	220.1372680664062	37.89938735961914	800.3755493164062	81.55577087402344	752.1387329101562	1001.766540527344	nan	nan	nan	nan	nan	nan	
479	4.78	234.4563293457031	1009.208984375	771.65625	409.0731811523438	995.2605590820312	784.8006591796875	329.0447387695312	1071.052490234375	794.533935546875	320.0784606933594	1249.025512695312	1045.740234375	334.4469299316406	1187.914428710938	777.8573608398438	349.4876098632812	1433.215698242188	828.2381591796875	329.9445495605469	1348.321899414062	982.557373046875	276.4155578613281	1296.685668945312	767.4000244140625	454.3002319335938	1393.75830078125	823.0458374023438	499.4945068359375	1397.850830078125	917.09912109375	572.3480224609375	1279.32958984375	892.3970947265625	579.0692138671875	1074.457641601562	885.8280639648438	512.7420043945312	1065.146728515625	830.8104248046875	538.98193359375	845.0157470703125	958.09814453125	591.0646362304688	833.8348388671875	909.8936157226562	588.0009765625	968.7826538085938	891.8785400390625	520.6224975585938	662.8446044921875	925.1375122070312	579.8900756835938	746.9600219726562	900.0222778320312	550.4522705078125	740.9160766601562	958.5383911132812	184.9877624511719	1409.291625976562	877.7462158203125	118.937385559082	1351.0498046875	865.3535766601562	55.30888366699219	1088.3935546875	862.8490600585938	143.8464813232422	1074.346557617188	831.8616333007812	102.562370300293	866.7662353515625	971.53564453125	23.91275024414062	866.0675659179688	937.5810546875	39.77999496459961	1022.895751953125	891.7593994140625	88.75164794921875	681.32421875	984.2529296875	21.40988922119141	756.0849609375	967.2213134765625	276.9087219238281	1590.361938476562	844.0684814453125	366.9301452636719	1632.46142578125	1033.5146484375	275.0007934570312	1626.7626953125	1016.316101074219	421.1971435546875	1588.490112304688	871.5753784179688	505.8853149414062	948.1445922851562	866.4327392578125	123.7099075317383	961.63916015625	865.4024658203125	188.2303009033203	962.9346923828125	988.4378051757812	440.9598693847656	955.0824584960938	995.264404296875	448.3575134277344	482.3895568847656	933.3566284179688	473.1923522949219	623.25830078125	925.08837890625	431.170166015625	48.04355239868164	817.2122802734375	447.3399658203125	255.989990234375	875.1981811523438	335.4436645507812	36.25030517578125	1011.560363769531	310.4955749511719	29.43634796142578	932.7954711914062	421.098388671875	40.1482048034668	938.7616577148438	380.2266845703125	46.09127044677734	762.1145629882812	151.1878509521484	485.396240234375	902.111572265625	121.1825561523438	749.640380859375	926.6640625	170.7046813964844	44.11304092407227	851.2008056640625	161.9938812255859	364.5959777832031	910.1941528320312	216.2708587646484	43.46313095092773	1047.169311523438	257.22314453125	38.05203628540039	990.1625366210938	145.4637908935547	36.01499938964844	954.701904296875	220.1221160888672	37.88903427124023	800.3716430664062	79.77845001220703	753.5579223632812	1008.755737304688	nan	nan	nan	nan	nan	nan	
